REM DIRINDEX 1\5,1\2\6,1\2\7,1\3\8,1\3\9,1\4\10,1\4\11,1\4\12
REM DIRNAME folder01,folder02,folder03,folder04,folder05,folder06,folder07,folder08,folder09,folder10,folder11,folder12
TITLE ""
FILE "EJE_DB3000_5th_6C_39.mp3" MP3
  TRACK 01 AUDIO
    TITLE "0:"
    INDEX 01 00:00:00
  TRACK 02 AUDIO
    TITLE "10:cjc026_11658"
    INDEX 01 00:00:05
  TRACK 03 AUDIO
    TITLE "0:"
    INDEX 01 00:00:72
  TRACK 04 AUDIO
    TITLE "11:cjc026_11659"
    INDEX 01 00:01:22
  TRACK 05 AUDIO
    TITLE "0:"
    INDEX 01 00:02:34
  TRACK 06 AUDIO
    TITLE "12:cjc026_11660"
    INDEX 01 00:02:61
  TRACK 07 AUDIO
    TITLE "0:"
    INDEX 01 00:03:53
  TRACK 08 AUDIO
    TITLE "10:cjc026_11661"
    INDEX 01 00:04:03
  TRACK 09 AUDIO
    TITLE "0:"
    INDEX 01 00:04:66
  TRACK 10 AUDIO
    TITLE "11:cjc026_11662"
    INDEX 01 00:05:16
  TRACK 11 AUDIO
    TITLE "0:"
    INDEX 01 00:06:28
  TRACK 12 AUDIO
    TITLE "12:cjc026_11663"
    INDEX 01 00:06:53
  TRACK 13 AUDIO
    TITLE "0:"
    INDEX 01 00:07:43
  TRACK 14 AUDIO
    TITLE "10:cjc026_11664"
    INDEX 01 00:07:68
  TRACK 15 AUDIO
    TITLE "0:"
    INDEX 01 00:08:56
  TRACK 16 AUDIO
    TITLE "11:cjc026_11665"
    INDEX 01 00:09:04
  TRACK 17 AUDIO
    TITLE "0:"
    INDEX 01 00:10:16
  TRACK 18 AUDIO
    TITLE "12:cjc026_11666"
    INDEX 01 00:10:43
  TRACK 19 AUDIO
    TITLE "0:"
    INDEX 01 00:11:29
  TRACK 20 AUDIO
    TITLE "10:cjc026_11667"
    INDEX 01 00:11:54
  TRACK 21 AUDIO
    TITLE "0:"
    INDEX 01 00:12:46
  TRACK 22 AUDIO
    TITLE "11:cjc026_11668"
    INDEX 01 00:12:71
  TRACK 23 AUDIO
    TITLE "0:"
    INDEX 01 00:13:55
  TRACK 24 AUDIO
    TITLE "12:cjc026_11669"
    INDEX 01 00:14:07
  TRACK 25 AUDIO
    TITLE "0:"
    INDEX 01 00:14:72
  TRACK 26 AUDIO
    TITLE "10:cjc026_11670"
    INDEX 01 00:15:25
  TRACK 27 AUDIO
    TITLE "0:"
    INDEX 01 00:16:18
  TRACK 28 AUDIO
    TITLE "11:cjc026_11671"
    INDEX 01 00:16:44
  TRACK 29 AUDIO
    TITLE "0:"
    INDEX 01 00:17:37
  TRACK 30 AUDIO
    TITLE "12:cjc026_11672"
    INDEX 01 00:17:63
  TRACK 31 AUDIO
    TITLE "0:"
    INDEX 01 00:18:56
  TRACK 32 AUDIO
    TITLE "10:cjc026_11673"
    INDEX 01 00:19:07
  TRACK 33 AUDIO
    TITLE "0:"
    INDEX 01 00:20:00
  TRACK 34 AUDIO
    TITLE "11:cjc026_11674"
    INDEX 01 00:20:28
  TRACK 35 AUDIO
    TITLE "0:"
    INDEX 01 00:21:29
  TRACK 36 AUDIO
    TITLE "12:cjc026_11675"
    INDEX 01 00:21:55
  TRACK 37 AUDIO
    TITLE "0:"
    INDEX 01 00:22:48
  TRACK 38 AUDIO
    TITLE "10:cjc026_11676"
    INDEX 01 00:22:74
  TRACK 39 AUDIO
    TITLE "0:"
    INDEX 01 00:23:67
  TRACK 40 AUDIO
    TITLE "11:cjc026_11677"
    INDEX 01 00:24:18
  TRACK 41 AUDIO
    TITLE "0:"
    INDEX 01 00:25:07
  TRACK 42 AUDIO
    TITLE "12:cjc026_11678"
    INDEX 01 00:25:31
  TRACK 43 AUDIO
    TITLE "0:"
    INDEX 01 00:26:24
  TRACK 44 AUDIO
    TITLE "10:cjc026_11679"
    INDEX 01 00:26:50
  TRACK 45 AUDIO
    TITLE "0:"
    INDEX 01 00:27:51
  TRACK 46 AUDIO
    TITLE "11:cjc026_11680"
    INDEX 01 00:28:00
  TRACK 47 AUDIO
    TITLE "0:"
    INDEX 01 00:29:05
  TRACK 48 AUDIO
    TITLE "12:cjc026_11681"
    INDEX 01 00:29:31
  TRACK 49 AUDIO
    TITLE "0:"
    INDEX 01 00:30:32
  TRACK 50 AUDIO
    TITLE "10:cjc026_11682"
    INDEX 01 00:30:57
  TRACK 51 AUDIO
    TITLE "0:"
    INDEX 01 00:31:53
  TRACK 52 AUDIO
    TITLE "11:cjc026_11683"
    INDEX 01 00:32:03
  TRACK 53 AUDIO
    TITLE "0:"
    INDEX 01 00:33:07
  TRACK 54 AUDIO
    TITLE "12:cjc026_11684"
    INDEX 01 00:33:32
  TRACK 55 AUDIO
    TITLE "0:"
    INDEX 01 00:34:26
  TRACK 56 AUDIO
    TITLE "10:cjc026_11685"
    INDEX 01 00:34:51
  TRACK 57 AUDIO
    TITLE "0:"
    INDEX 01 00:35:47
  TRACK 58 AUDIO
    TITLE "11:cjc026_11686"
    INDEX 01 00:35:72
  TRACK 59 AUDIO
    TITLE "0:"
    INDEX 01 00:37:05
  TRACK 60 AUDIO
    TITLE "12:cjc026_11687"
    INDEX 01 00:37:30
  TRACK 61 AUDIO
    TITLE "0:"
    INDEX 01 00:38:26
  TRACK 62 AUDIO
    TITLE "10:cjc026_11688"
    INDEX 01 00:38:51
  TRACK 63 AUDIO
    TITLE "0:"
    INDEX 01 00:39:39
  TRACK 64 AUDIO
    TITLE "11:cjc026_11689"
    INDEX 01 00:39:62
  TRACK 65 AUDIO
    TITLE "0:"
    INDEX 01 00:41:00
  TRACK 66 AUDIO
    TITLE "12:cjc026_11690"
    INDEX 01 00:41:28
  TRACK 67 AUDIO
    TITLE "0:"
    INDEX 01 00:42:14
  TRACK 68 AUDIO
    TITLE "10:cjc026_11691"
    INDEX 01 00:42:41
  TRACK 69 AUDIO
    TITLE "0:"
    INDEX 01 00:43:39
  TRACK 70 AUDIO
    TITLE "11:cjc026_11692"
    INDEX 01 00:43:64
  TRACK 71 AUDIO
    TITLE "0:"
    INDEX 01 00:45:00
  TRACK 72 AUDIO
    TITLE "12:cjc026_11693"
    INDEX 01 00:45:26
  TRACK 73 AUDIO
    TITLE "0:"
    INDEX 01 00:46:25
  TRACK 74 AUDIO
    TITLE "10:cjc026_11694"
    INDEX 01 00:46:49
  TRACK 75 AUDIO
    TITLE "0:"
    INDEX 01 00:47:42
  TRACK 76 AUDIO
    TITLE "11:cjc026_11695"
    INDEX 01 00:47:68
  TRACK 77 AUDIO
    TITLE "0:"
    INDEX 01 00:49:02
  TRACK 78 AUDIO
    TITLE "12:cjc026_11696"
    INDEX 01 00:49:27
  TRACK 79 AUDIO
    TITLE "0:"
    INDEX 01 00:50:19
